Coordinates
version=1
nRows=19
nColumns=36
inDegrees=yes

Units are S.I. units (second, meters, Newtons, ...)
If the header above contains a line with 'inDegrees', this indicates whether rotational values are in degrees (yes) or radians (no).

endheader
time	pelvis_tilt	pelvis_list	pelvis_rotation	pelvis_tx	pelvis_ty	pelvis_tz	hip_flexion_r	hip_adduction_r	hip_rotation_r	knee_angle_r	knee_angle_r_beta	ankle_angle_r	subtalar_angle_r	mtp_angle_r	hip_flexion_l	hip_adduction_l	hip_rotation_l	knee_angle_l	knee_angle_l_beta	ankle_angle_l	subtalar_angle_l	mtp_angle_l	lumbar_extension	lumbar_bending	lumbar_rotation	arm_flex_r	arm_add_r	arm_rot_r	elbow_flex_r	pro_sup_r	arm_flex_l	arm_add_l	arm_rot_l	elbow_flex_l	pro_sup_l
     11.85000000	     -0.61549862	      4.32145402	      5.31629373	      0.49266142	      0.87341049	      0.48733430	      6.53717104	      0.83441880	     -0.60000206	      8.44194266	      0.14733969	      8.31489319	     -8.05381260	     -7.49999987	     21.94879592	      0.73159241	      6.00979746	     11.06620913	      0.19314179	     -1.63521783	    -10.46085390	     -7.49999987	     -1.27270980	      1.06884170	      6.46176009	     48.43185123	      4.10205867	     68.44187433	    127.95080961	     88.37538496	     44.31659231	      7.64674832	     71.45782113	    123.34478640	     76.67385402
     11.86666670	     -0.59770153	      4.35078645	      5.42645439	      0.48774765	      0.86701810	      0.48489894	      6.70829102	      0.77189578	     -0.51098512	      8.66210637	      0.15118228	      8.69282332	     -8.45158675	     -7.49999987	     21.91480177	      0.84810334	      5.79839947	     10.90226859	      0.19028048	     -1.41223353	    -10.27178358	     -7.49999987	     -1.23107520	      1.13659278	      6.41728390	     49.31806478	      3.79495932	     68.73659649	    128.16927639	     87.17014536	     44.57201715	      7.59991258	     70.97589515	    123.04608425	     75.87267369
     11.88333330	     -0.53933551	      4.30819121	      5.55319299	      0.49241278	      0.87031274	      0.48681079	      6.38362610	      0.86671680	     -0.34210847	      8.31408238	      0.14510811	      8.64738287	     -8.60627539	     -7.49999987	     21.52192371	      0.80194586	      5.69169476	     10.49527358	      0.18317708	     -1.58374149	    -10.10041778	     -7.49999987	     -1.00252017	      1.28697038	      6.46013919	     49.30367960	      3.59807974	     68.88850119	    127.95241457	     87.27655212	     44.06781441	      7.63499587	     70.97985167	    122.97639672	     75.94764881
     11.90000000	     -0.31323023	      4.32583520	      5.47614188	      0.49315995	      0.87770500	      0.48645796	      5.80512581	      0.92621987	     -0.39404306	      7.73177255	      0.13494489	      8.69170534	     -8.45722629	     -7.49999987	     21.00212952	      0.70879041	      5.14163321	     10.03518989	      0.17514710	     -1.33270195	     -9.07182622	     -7.49999987	     -1.10081782	      1.44257347	      6.50841518	     48.72060744	      3.50791697	     69.04556629	    127.77286102	     86.19176414	     43.12046200	      7.44656909	     70.84323150	    123.08434602	     75.40927001
     11.91666670	     -0.23225732	      4.34350371	      5.38919755	      0.49246902	      0.87225017	      0.48670796	      5.66764577	      0.98756739	     -0.21090210	      7.63156890	      0.13319600	      8.75036766	     -8.70207266	     -7.49999987	     20.71371152	      0.66384672	      5.06226100	      9.70647973	      0.16941003	     -1.24747755	     -8.84375788	     -7.49999987	     -0.99033800	      1.42947824	      6.70626996	     48.61811423	      3.45533120	     68.74587283	    127.53474605	     86.99717434	     42.56766886	      7.51394596	     70.79068836	    123.23128378	     76.02541538
     11.93333330	     -0.08446254	      4.39292631	      5.22320767	      0.49813507	      0.88002180	      0.48324108	      5.27249356	      0.90726334	     -0.01298651	      7.44181587	      0.12988419	      8.76712433	     -8.43670810	     -7.49999987	     20.26099042	      0.68116356	      5.03523831	      9.96298565	      0.17388690	     -1.74682670	     -8.75891756	     -7.49999987	     -0.93995927	      1.49641386	      6.64366494	     48.08707633	      3.31978186	     68.87114695	    127.52628443	     86.91171859	     41.95395106	      7.27742003	     70.62103155	    123.07008678	     76.04526802
     11.95000000	     -0.02202180	      4.37681889	      5.27408552	      0.49646991	      0.87861809	      0.48335504	      5.05306705	      0.88375889	      0.08706421	      7.28692593	      0.12718085	      8.70139664	     -8.23525970	     -7.49999987	     19.85277366	      0.60017586	      4.83469385	      9.86706409	      0.17221276	     -2.24424104	     -8.58698211	     -7.49999987	     -0.78386533	      1.65743319	      6.78611963	     48.05454596	      2.82760996	     68.84226597	    127.39313368	     86.94580415	     41.25737538	      7.37439113	     70.83650775	    123.22024900	     76.08603268
     11.96666670	     -0.00693571	      4.49510595	      5.19461144	      0.49770732	      0.87261461	      0.48342740	      4.93882538	      0.72882233	      0.19767217	      7.16481564	      0.12504962	      8.78005226	     -8.13661690	     -7.49999987	     19.47046054	      0.67294979	      4.71418653	      9.63926722	      0.16823695	     -2.44547821	     -8.63038876	     -7.49999987	     -0.61908197	      1.66611641	      7.21894262	     47.64903296	      2.53177986	     68.42377373	    127.43711610	     85.54824907	     40.45183293	      7.13095376	     70.30768137	    123.55794108	     75.26186592
     11.98333330	      0.14801112	      4.68651903	      5.32158608	      0.49740491	      0.86931693	      0.48371243	      4.73524257	      0.49320513	     -0.04916323	      7.19923394	      0.12565034	      9.52239315	     -7.51416886	     -7.49999987	     19.01640119	      0.94659492	      4.73298380	      9.36508655	      0.16345160	     -2.23711912	     -8.37938160	     -7.49999987	     -0.65671405	      1.55840491	      7.26504320	     47.43856684	      2.58378955	     67.49989984	    127.32884535	     88.06044877	     40.44205579	      7.18927619	     69.85348281	    123.59316504	     77.44018769
     12.00000000	      0.11656433	      4.64874290	      5.45725933	      0.49683702	      0.87113371	      0.48325125	      4.78488508	      0.49496154	      0.02756281	      7.28875250	      0.12721273	      9.61549765	     -7.58817360	     -7.49999987	     18.81563212	      0.94792300	      4.93037971	      9.19271951	      0.16044322	     -2.10345627	     -7.80719525	     -7.49999987	     -0.55995064	      1.73581662	      7.22905795	     47.51755923	      2.48823079	     66.97648010	    127.46594017	     85.64255613	     40.65256909	      7.17352704	     69.35129227	    123.71391304	     75.60571976
     12.01666670	      0.24808163	      4.70143544	      5.44235620	      0.49705055	      0.87103038	      0.48385445	      4.81435817	      0.44846507	      0.12664637	      7.64564930	      0.13344175	      9.71305496	     -7.67805425	     -7.49999987	     18.51010894	      1.06296924	      5.10621910	      8.97722123	      0.15668207	     -1.77368625	     -7.76881059	     -7.49999987	     -0.65329173	      1.73545057	      7.09981079	     47.94028310	      2.70924206	     66.67503151	    127.38599577	     84.94054954	     41.52795602	      7.51628152	     69.16778906	    123.14170226	     75.14241237
     12.03333330	      0.24164189	      4.83955955	      5.42997422	      0.49736536	      0.87935839	      0.48373284	      5.10861724	      0.26561084	      0.09022560	      8.20523973	      0.14320845	      9.43662313	     -7.62047467	     -7.49999987	     18.25774145	      1.29768574	      5.34341470	      8.87428395	      0.15488547	     -1.66361218	     -7.47196325	     -7.49999987	     -0.53188685	      1.58836615	      7.14317675	     47.39505750	      2.74004078	     66.37838767	    127.13663981	     88.00225495	     41.14425266	      7.20959256	     68.93833984	    122.83103779	     77.43039726
     12.05000000	      0.32260219	      5.00635950	      5.22782011	      0.49681789	      0.87191901	      0.48412282	      5.21324317	      0.10636046	      0.41173865	      8.56962143	      0.14956811	      9.59561561	     -7.85375379	     -7.49999987	     18.35253955	      1.46863272	      5.28790814	      9.30377324	      0.16238148	     -1.13886977	     -7.63232511	     -7.49999987	     -0.62783409	      1.42668491	      7.09024571	     47.54841613	      3.14198797	     66.67032446	    126.97783091	     86.67343852	     41.80208409	      7.42335511	     69.11624681	    122.71572546	     76.64026227
     12.06666670	      0.29793461	      5.07338806	      5.35236824	      0.49727154	      0.87428523	      0.48394335	      5.34848488	      0.01935846	      0.36653729	      8.78942768	      0.15340445	      9.27727834	     -7.88547489	     -7.49999987	     18.25794148	      1.59501818	      5.72513177	      9.41633553	      0.16434606	     -1.25678793	     -7.72533036	     -7.49999987	     -0.62602017	      1.40335252	      7.16321681	     47.60489778	      3.04910149	     66.62361152	    126.90649270	     86.16001066	     41.67669900	      7.21044351	     69.11818515	    122.75217531	     76.12474093
     12.08333330	      0.28120498	      5.03507615	      5.38430167	      0.49612152	      0.87581222	      0.48390122	      5.38107664	      0.03644691	      0.25441414	      8.82455424	      0.15401753	      9.35968426	     -7.61554035	     -7.49999987	     18.17161300	      1.57347427	      5.70732098	      9.30683886	      0.16243498	     -0.96029246	     -7.07968266	     -7.49999987	     -0.67161878	      1.53865567	      7.34985957	     47.64896465	      2.75965824	     66.49098836	    126.81086773	     84.86719513	     41.62447605	      7.31839443	     69.43937245	    122.81868201	     75.10734460
     12.10000000	      0.32951703	      4.99079413	      5.38805819	      0.49696536	      0.86823084	      0.48360020	      5.47216845	      0.10029769	      0.41633926	      9.00352083	      0.15714108	      9.43975376	     -7.98584068	     -7.49999987	     18.18590686	      1.49810625	      5.88077629	      9.32796925	      0.16280378	     -0.64494143	     -7.25204654	     -7.49999987	     -0.81750468	      1.66104863	      7.41579051	     47.96402792	      2.76486517	     66.21531653	    126.93817883	     84.40444038	     42.19618652	      7.37010128	     69.01834206	    122.70895800	     74.81153889
     12.11666670	      0.24921310	      4.86402177	      5.42480690	      0.49210422	      0.87112938	      0.48726638	      5.61659240	      0.34292890	      0.53131331	      8.84301915	      0.15433980	      9.57849742	     -7.97553897	     -7.49999987	     18.39009781	      1.26975721	      6.00337822	      9.29961511	      0.16230890	     -0.83138768	     -7.16034646	     -7.49999987	     -0.93196682	      1.77659119	      7.52614574	     48.12438488	      2.76655693	     65.99123774	    126.79399453	     84.49262404	     42.48432976	      7.37076545	     68.91444770	    122.61315858	     74.87253948
     12.13333330	      0.23069129	      4.79469403	      5.53936070	      0.49646743	      0.87028650	      0.48303643	      5.48486415	      0.38281617	      0.45352135	      8.55082278	      0.14924001	      9.95797187	     -8.07467414	     -7.49999987	     18.31863222	      1.23429728	      6.12730181	      9.03453201	      0.15768233	     -0.55158554	     -7.04196009	     -7.49999987	     -0.82261413	      1.94007868	      7.50741560	     47.73683625	      2.70909518	     65.08596817	    126.63747072	     84.99296963	     42.59844348	      7.38078815	     68.44537164	    122.25299329	     75.19265672
     12.15000000	      0.20587516	      4.75107969	      5.58269874	      0.50152942	      0.87631813	      0.47996298	      4.99087016	      0.32426469	      0.36129217	      7.82592493	      0.13658816	      9.87912754	     -7.80201516	     -7.49999987	     17.81434475	      1.21507408	      5.92543483	      8.43680819	      0.14725008	     -1.17816567	     -6.80607666	     -7.49999987	     -0.43579013	      2.16712019	      7.46764528	     46.98286867	      2.59417671	     65.16497598	    126.74384376	     85.28462860	     41.91376202	      7.54831029	     68.83031156	    122.16365273	     75.37025420
